<svg width="102" height="11" viewBox="0 0 102 11" fill="none" xmlns="http://www.w3.org/2000/svg">
<path d="M12.8524 5.62568C12.8524 7.11162 12.4633 8.31084 11.6841 9.22454C11.3926 9.58859 10.9833 9.92051 10.4527 10.2215C9.96496 10.4809 9.49741 10.6677 9.05008 10.7819C8.46831 10.927 7.77828 10.9996 6.9788 10.9996H0V0.00195312H6.24713C6.68257 0.00195312 7.11919 0.017421 7.55581 0.0483533C9.52953 0.214912 10.9726 0.962044 11.8863 2.29213C12.5311 3.21653 12.8524 4.32771 12.8524 5.62568ZM9.00487 5.53289C9.00487 4.50498 8.66699 3.73049 7.99243 3.21178C7.47253 2.81798 6.71945 2.6193 5.73318 2.6193H3.84869V8.50834H5.8581C6.08653 8.50834 6.31495 8.49287 6.54337 8.46194C7.58198 8.3275 8.28272 7.88017 8.64677 7.12233C8.88471 6.63336 9.00487 6.10395 9.00487 5.53289Z" fill="white"/>
<path d="M18.2105 10.9996H14.269V0.00195312H18.2105V10.9996Z" fill="white"/>
<path d="M32.7435 10.9996H28.3975L26.1228 6.99622H24.0349V10.9996H20.0791V0.00195312H28.1798C29.0935 0.00195312 29.8525 0.0947508 30.4545 0.281534C31.0565 0.468318 31.5609 0.878763 31.9654 1.51287C32.339 2.11487 32.527 2.77515 32.527 3.49135C32.527 4.7691 32.0285 5.68279 31.0315 6.23362C30.8031 6.36925 30.4605 6.49298 30.0036 6.60719L32.7435 10.9996ZM28.5998 3.50563C28.5998 3.28791 28.5427 3.10113 28.4284 2.94528C28.2202 2.64428 27.8467 2.49319 27.3066 2.49319H24.0349V4.51807H26.9949C27.7015 4.51807 28.1631 4.38839 28.3809 4.12904C28.5272 3.95296 28.5998 3.74476 28.5998 3.50563Z" fill="white"/>
<path d="M45.472 10.9996H33.7261V0.00195312H45.3316V2.46345H37.6664V4.27061H44.7546V6.74757H37.6664V8.50833H45.4708V10.9996H45.472Z" fill="white"/>
<path d="M54.056 0.00119087L50.3643 4.114V0.00119087H46.7036V10.9988H50.3489V8.14828L51.7194 6.83961L54.6009 10.9988H59.3371H63.294V2.4615H67.1879V0H54.056V0.00119087ZM54.5235 4.16039L56.2855 2.46269H59.3371V11L54.5235 4.16039Z" fill="white"/>
<path d="M73.1392 10.9996H69.1978V0.00195312H73.1392V10.9996Z" fill="white"/>
<path d="M87.44 10.9996H84.1683L78.9491 5.11054V10.9996H75.0552V0.00195312H78.3114L83.5616 5.797V0.00195312H87.4412V10.9996H87.44Z" fill="white"/>
<path d="M101.944 10.9996H97.2078L94.3263 6.84037L92.9558 8.14905V10.9996H89.3105V0.00195312H92.9713V4.11476L96.6629 0.00195312H101.446L97.1305 4.16116L101.944 10.9996Z" fill="white"/>
</svg>
