<svg width="16" height="16" viewBox="0 0 16 16" fill="none" xmlns="http://www.w3.org/2000/svg">
<g clip-path="url(#clip0_107_128)">
<path d="M8 16C12.4183 16 16 12.4183 16 8C16 3.58172 12.4183 0 8 0C3.58172 0 0 3.58172 0 8C0 12.4183 3.58172 16 8 16Z" fill="white"/>
<path d="M2.14153 9.27672C2.14153 9.58428 1.87537 9.80904 1.57372 9.80904C1.27207 9.80904 1 9.58428 1 9.27672C1 8.96916 1.26025 8.75623 1.57372 8.75623C1.8872 8.75623 2.14153 8.96916 2.14153 9.27672ZM4.24123 7.06464V6.73933L2.6147 6.78074V6.86945L3.02281 6.9286V9.5902L2.6147 9.64935V9.73807H4.64935V9.64935L4.24123 9.5902V7.17702C4.50739 7.17702 5.18166 7.26574 5.78496 8.24757H5.87368V6.93452C5.52472 6.76299 5.29404 6.72159 5.06929 6.72159C4.82678 6.72159 4.59611 6.81622 4.24123 7.06464ZM9.38699 8.0997H7.19856C7.31094 8.91001 7.83143 9.61977 8.36375 9.61977C8.71863 9.61977 9.08534 9.31812 9.19772 8.83904H9.3101C9.16815 9.47191 8.67723 9.79721 8.00887 9.79721C6.87326 9.79721 6.11027 9.16434 6.11027 8.27123C6.11027 7.43726 6.75496 6.72159 7.79594 6.72159C8.70089 6.72159 9.32193 7.32488 9.38699 8.0997ZM8.4643 7.95184C8.30461 7.31897 7.9793 6.8458 7.65991 6.8458C7.16899 6.8458 7.13942 7.59696 7.18082 7.95184H8.4643ZM10.4812 7.12379C10.4812 6.94635 10.6646 6.81031 10.9603 6.81031C11.2264 6.81031 11.8297 7.05281 12.433 8.03464H12.5218L12.5395 6.97592C12.2083 6.83397 11.6996 6.72159 11.0549 6.72159C10.1618 6.72159 9.50528 6.90494 9.50528 7.56739C9.50528 8.55513 11.7824 8.89818 11.7824 9.34178C11.7824 9.50148 11.5932 9.69075 11.2679 9.69075C10.9425 9.69075 10.3392 9.48373 9.70046 8.5019H9.61175L9.594 9.66118C9.9962 9.76172 10.8479 9.79721 11.256 9.79721C12.0604 9.79721 12.7169 9.65526 12.7169 8.93959C12.7169 7.89861 10.4812 7.76848 10.4812 7.12379ZM14.9586 9.40684C14.8817 9.4305 14.7989 9.44233 14.7279 9.44233C14.5032 9.44233 14.3198 9.31812 14.3198 9.07562L14.3257 6.86945H14.9113V6.72159H14.3316V6H14.2429L12.7761 6.78665V6.87537H13.1014V9.07562C13.1014 9.5902 13.5036 9.79721 13.9649 9.79721C14.3257 9.79721 14.7279 9.66709 15 9.46008L14.9586 9.40684Z" fill="#1D1D1B"/>
</g>
<defs>
<clipPath id="clip0_107_128">
<rect width="16" height="16" fill="white"/>
</clipPath>
</defs>
</svg>
