<svg width="116" height="116" viewBox="0 0 116 116" fill="none" xmlns="http://www.w3.org/2000/svg">
<g clip-path="url(#clip0_47_631)">
<path d="M58 116C90.0325 116 116 90.0325 116 58C116 25.9675 90.0325 0 58 0C25.9675 0 0 25.9675 0 58C0 90.0325 25.9675 116 58 116Z" fill="white"/>
<path d="M30.7127 62.6143C30.7127 64.0469 29.4729 65.0938 28.0679 65.0938C26.6628 65.0938 25.3955 64.0469 25.3955 62.6143C25.3955 61.1817 26.6077 60.1899 28.0679 60.1899C29.528 60.1899 30.7127 61.1817 30.7127 62.6143ZM40.4929 52.3106V50.7953L32.9167 50.9882V51.4014L34.8176 51.6769V64.0744L32.9167 64.3499V64.7632H42.3939V64.3499L40.4929 64.0744V52.834C41.7327 52.834 44.8734 53.2473 47.6835 57.8206H48.0967V51.7045C46.4713 50.9055 45.3968 50.7127 44.3499 50.7127C43.2204 50.7127 42.1459 51.1535 40.4929 52.3106ZM64.4614 57.1318H54.2679C54.7914 60.9062 57.2158 64.2122 59.6953 64.2122C61.3483 64.2122 63.0564 62.8071 63.5798 60.5756H64.1033C63.4421 63.5234 61.1554 65.0387 58.0423 65.0387C52.7527 65.0387 49.1987 62.0908 49.1987 57.9308C49.1987 54.0462 52.2017 50.7127 57.0505 50.7127C61.2656 50.7127 64.1584 53.5228 64.4614 57.1318ZM60.1636 56.4431C59.4198 53.4952 57.9045 51.2912 56.4168 51.2912C54.1302 51.2912 53.9924 54.7901 54.1853 56.4431H60.1636ZM69.5582 52.5861C69.5582 51.7596 70.4122 51.1259 71.7897 51.1259C73.0295 51.1259 75.8396 52.2555 78.6497 56.8288H79.0629L79.1456 51.8973C77.6028 51.2361 75.2335 50.7127 72.2305 50.7127C68.0705 50.7127 65.0124 51.5667 65.0124 54.6523C65.0124 59.2532 75.6192 60.8511 75.6192 62.9173C75.6192 63.6612 74.7376 64.5428 73.2223 64.5428C71.7071 64.5428 68.897 63.5785 65.9216 59.0052H65.5083L65.4257 64.405C67.2991 64.8734 71.2663 65.0387 73.1672 65.0387C76.914 65.0387 79.9721 64.3775 79.9721 61.0439C79.9721 56.1951 69.5582 55.589 69.5582 52.5861ZM90.4135 63.2204C90.0554 63.3306 89.6697 63.3857 89.3391 63.3857C88.2922 63.3857 87.4381 62.8071 87.4381 61.6776L87.4657 51.4014H90.1931V50.7127H87.4932V47.3516H87.08L80.2476 51.0157V51.429H81.7628V61.6776C81.7628 64.0744 83.6362 65.0387 85.7851 65.0387C87.4657 65.0387 89.3391 64.4326 90.6064 63.4683L90.4135 63.2204Z" fill="#1D1D1B"/>
</g>
<defs>
<clipPath id="clip0_47_631">
<rect width="116" height="116" fill="white"/>
</clipPath>
</defs>
</svg>
