<svg width="444" height="121" viewBox="0 0 444 121" fill="none" xmlns="http://www.w3.org/2000/svg">
<path d="M36.2028 104.09C36.2028 113.86 27.7617 121 18.1952 121C8.62865 121 0 113.86 0 104.09C0 94.3199 8.25349 87.5559 18.1952 87.5559C28.1369 87.5559 36.2028 94.3199 36.2028 104.09ZM102.793 33.8199V23.486L51.2091 24.8013V27.6196L64.1521 29.4985V114.048L51.2091 115.927V118.745H115.736V115.927L102.793 114.048V37.3897C111.234 37.3897 132.619 40.2081 151.752 71.3975H154.565V29.6863C143.498 24.2376 136.183 22.9223 129.054 22.9223C121.364 22.9223 114.048 25.9286 102.793 33.8199ZM265.987 66.7003H196.583C200.147 92.441 216.654 114.988 233.536 114.988C244.791 114.988 256.421 105.405 259.985 90.1863H263.549C259.047 110.29 243.478 120.624 222.281 120.624C186.266 120.624 162.068 100.52 162.068 72.149C162.068 45.6568 182.515 22.9223 215.529 22.9223C244.228 22.9223 263.924 42.087 265.987 66.7003ZM236.725 62.0031C231.66 41.8991 221.343 26.868 211.214 26.868C195.645 26.868 194.707 50.7298 196.02 62.0031H236.725ZM300.69 35.6988C300.69 30.0621 306.504 25.7407 315.883 25.7407C324.324 25.7407 343.458 33.4441 362.591 64.6335H365.404L365.967 31.0016C355.463 26.4922 339.331 22.9223 318.885 22.9223C290.56 22.9223 269.739 28.7469 269.739 49.7904C269.739 81.1677 341.957 92.0652 341.957 106.157C341.957 111.23 335.954 117.242 325.638 117.242C315.321 117.242 296.188 110.666 275.929 79.4767H273.115L272.553 116.303C285.308 119.497 312.319 120.624 325.262 120.624C350.773 120.624 371.594 116.115 371.594 93.3804C371.594 60.3121 300.69 56.1786 300.69 35.6988ZM442.687 108.224C440.248 108.975 437.622 109.351 435.371 109.351C428.243 109.351 422.428 105.405 422.428 97.7018L422.616 27.6196H441.186V22.9223H422.804V0H419.99L373.47 24.9891V27.8074H383.787V97.7018C383.787 114.048 396.542 120.624 411.174 120.624C422.616 120.624 435.371 116.491 444 109.915L442.687 108.224Z" fill="white"/>
</svg>
